HIERARCHY
ROOT Hips
{
	OFFSET 52.065498 -7.981635 93.967598
	CHANNELS 6 Xposition Yposition Zposition Xrotation Yrotation Zrotation
	JOINT spine
	{
		OFFSET 0.000000 -0.429886 7.475601
		CHANNELS 3 Xrotation Yrotation Zrotation
		JOINT spine1
		{
			OFFSET 0.000000 -0.000002 9.923012
			CHANNELS 3 Xrotation Yrotation Zrotation
			JOINT spine2
			{
				OFFSET 0.000000 -0.000002 9.508041
				CHANNELS 3 Xrotation Yrotation Zrotation
				JOINT Neck
				{
					OFFSET 0.000000 -1.163844 24.411102
					CHANNELS 3 Xrotation Yrotation Zrotation
					JOINT Head
					{
						OFFSET 0.000000 -0.000001 7.375229
						CHANNELS 3 Xrotation Yrotation Zrotation
						End Site
						{
							OFFSET 0.000000 5.887407 17.852203
						}
					}
				}
				JOINT RightShoulder
				{
					OFFSET -4.003559 0.557467 10.267899
					CHANNELS 3 Xrotation Yrotation Zrotation
					JOINT RightArm
					{
						OFFSET 0.000000 -0.000002 13.467300
						CHANNELS 3 Xrotation Yrotation Zrotation
						JOINT RightArmRoll
						{
							OFFSET 0.000000 -0.000001 6.798584
							CHANNELS 3 Xrotation Yrotation Zrotation
							JOINT RightForeArm
							{
								OFFSET 0.000000 -0.000003 19.801804
								CHANNELS 3 Xrotation Yrotation Zrotation
								JOINT RightForeArmRoll
								{
									OFFSET 0.000000 -0.000001 7.629044
									CHANNELS 3 Xrotation Yrotation Zrotation
									JOINT RightHand
									{
										OFFSET 0.000000 -0.000002 15.309799
										CHANNELS 3 Xrotation Yrotation Zrotation
										End Site
										{
											OFFSET 0.000000 0.000000 0.100006
										}
									}
								}
							}
						}
					}
				}
				JOINT LeftShoulder
				{
					OFFSET 4.003559 0.557467 10.267899
					CHANNELS 3 Xrotation Yrotation Zrotation
					JOINT LeftArm
					{
						OFFSET 0.000000 -0.000002 13.467300
						CHANNELS 3 Xrotation Yrotation Zrotation
						JOINT LeftArmRoll
						{
							OFFSET 0.000000 -0.000001 6.798569
							CHANNELS 3 Xrotation Yrotation Zrotation
							JOINT LeftForeArm
							{
								OFFSET 0.000000 -0.000003 19.801804
								CHANNELS 3 Xrotation Yrotation Zrotation
								JOINT LeftForeArmRoll
								{
									OFFSET 0.000000 -0.000001 7.629044
									CHANNELS 3 Xrotation Yrotation Zrotation
									JOINT LeftHand
									{
										OFFSET 0.000000 -0.000002 15.309799
										CHANNELS 3 Xrotation Yrotation Zrotation
										End Site
										{
											OFFSET 0.000000 0.000000 0.100006
										}
									}
								}
							}
						}
					}
				}
			}
		}
	}
	JOINT RightUpLeg
	{
		OFFSET -6.626091 1.019270 -1.215050
		CHANNELS 3 Xrotation Yrotation Zrotation
		JOINT RightUpLegRoll
		{
			OFFSET 0.000000 -0.000003 17.951698
			CHANNELS 3 Xrotation Yrotation Zrotation
			JOINT RightLeg
			{
				OFFSET 0.000000 0.000004 -22.230400
				CHANNELS 3 Xrotation Yrotation Zrotation
				JOINT RightLegRoll
				{
					OFFSET 0.000000 -0.000004 22.303200
					CHANNELS 3 Xrotation Yrotation Zrotation
					JOINT RightFoot
					{
						OFFSET 0.000000 -0.000003 18.563606
						CHANNELS 3 Xrotation Yrotation Zrotation
						JOINT RightToeBase
						{
							OFFSET 0.000000 -0.000002 15.518295
							CHANNELS 3 Xrotation Yrotation Zrotation
							End Site
							{
								OFFSET 0.006577 0.866261 7.515396
							}
						}
					}
				}
			}
		}
	}
	JOINT LeftUpLeg
	{
		OFFSET 6.626091 1.019270 -1.215050
		CHANNELS 3 Xrotation Yrotation Zrotation
		JOINT LeftUpLegRoll
		{
			OFFSET 0.000000 -0.000003 17.951797
			CHANNELS 3 Xrotation Yrotation Zrotation
			JOINT LeftLeg
			{
				OFFSET 0.000000 -0.000003 22.230301
				CHANNELS 3 Xrotation Yrotation Zrotation
				JOINT LeftLegRoll
				{
					OFFSET 0.000000 -0.000004 22.509293
					CHANNELS 3 Xrotation Yrotation Zrotation
					JOINT LeftFoot
					{
						OFFSET 0.000000 -0.000003 18.357498
						CHANNELS 3 Xrotation Yrotation Zrotation
						JOINT LeftToeBase
						{
							OFFSET 0.000000 -0.000003 15.518295
							CHANNELS 3 Xrotation Yrotation Zrotation
							End Site
							{
								OFFSET -0.029476 0.866262 7.515396
							}
						}
					}
				}
			}
		}
	}
}
MOTION
Frames: 9
Frame Time: 0.041667
56.479500 -6.452285 93.695900 -1.302954 0.172370 4.263720 -2.685280 -0.034247 -0.198781 -1.367821 -0.057248 -0.398609 0.277233 -0.061582 -0.397937 24.653402 9.623317 -4.698428 -2.823768 -13.899655 -3.059233 -14.130771 -6.270113 -14.087879 -153.325152 -171.404813 -68.506039 -0.000003 0.000020 0.000002 55.650824 -2.065224 2.815191 0.000004 -0.000008 -3.003119 -5.000221 -7.999620 0.000063 -19.901097 20.702114 23.928162 -145.344240 187.861730 92.937653 0.000000 -0.000006 0.000001 47.122175 -4.565948 0.337603 -0.000009 0.000012 3.005002 -5.000156 7.999998 -0.000033 -4.399429 182.130724 -0.233871 -179.999991 0.000005 -1.045000 168.285616 -1.677352 -0.711768 -0.000007 0.000003 0.171111 69.415472 6.853831 2.200528 25.456972 -7.355613 -0.000000 -2.160711 180.548633 2.994551 -0.000005 -0.000004 -0.920832 -5.466322 4.060284 0.318046 -0.000000 -0.000004 -0.061702 69.369983 -6.823508 -2.299610 25.456964 7.355615 -0.000000 
56.473206 -6.464033 93.699989 -1.293935 0.183216 4.236959 -2.684822 -0.033554 -0.199824 -1.366900 -0.055872 -0.400695 0.278154 -0.060340 -0.400036 24.548122 9.587899 -4.679168 -2.785185 -13.855844 -3.050213 -14.142898 -6.347777 -14.115122 -153.305208 -171.289998 -68.680585 -0.000005 0.000021 0.000002 55.204591 -1.897549 2.669935 0.000005 -0.000009 -3.003120 -5.000217 -7.999621 0.000063 -19.893110 20.708329 23.915685 -145.319187 187.694527 93.040318 -0.000001 -0.000007 0.000000 46.781127 -4.599656 0.364855 -0.000007 0.000012 3.004981 -5.000156 7.999997 -0.000033 -4.404307 182.117760 -0.244058 -179.999991 0.000005 -1.045000 168.302623 -1.675488 -0.710862 -0.000007 0.000003 0.170914 69.416640 6.853885 2.200365 25.456971 -7.355613 -0.000001 -2.173559 180.536626 2.988344 -0.000005 -0.000004 -0.920834 -5.473973 4.060521 0.318510 -0.000001 -0.000004 -0.061648 69.369457 -6.823518 -2.299545 25.456960 7.355616 -0.000001 
56.459003 -6.490447 93.705498 -1.284060 0.194177 4.210703 -2.684151 -0.032458 -0.201062 -1.365561 -0.053722 -0.403141 0.279487 -0.058304 -0.402503 24.434471 9.542109 -4.657694 -2.740763 -13.803497 -3.040319 -14.157972 -6.435846 -14.148155 -153.285031 -171.185455 -68.856073 -0.000003 0.000021 0.000001 54.753904 -1.726717 2.524031 0.000003 -0.000008 -3.003119 -5.000220 -7.999621 0.000064 -19.886599 20.705666 23.905640 -145.290964 187.520959 93.149997 -0.000002 -0.000004 0.000001 46.434163 -4.631631 0.390773 -0.000007 0.000014 3.004950 -5.000156 7.999999 -0.000032 -4.409977 182.105780 -0.253921 -179.999991 0.000005 -1.045000 168.319835 -1.673639 -0.709955 -0.000007 0.000002 0.170722 69.417412 6.853954 2.200229 25.456971 -7.355614 -0.000000 -2.188115 180.524632 2.981925 -0.000005 -0.000004 -0.920837 -5.482618 4.060980 0.319060 -0.000001 -0.000004 -0.061594 69.368918 -6.823493 -2.299573 25.456964 7.355614 -0.000001 
56.458401 -6.483493 93.700104 -1.273461 0.205310 4.185005 -2.683170 -0.030861 -0.202477 -1.363601 -0.050604 -0.405918 0.281453 -0.055288 -0.405314 24.310544 9.483479 -4.633811 -2.689461 -13.740521 -3.029740 -14.176343 -6.535839 -14.187821 -153.266508 -171.090351 -69.033494 -0.000002 0.000021 0.000001 54.301319 -1.551352 2.377668 0.000002 -0.000010 -3.003121 -5.000224 -7.999619 0.000064 -19.882073 20.692253 23.898793 -145.259750 187.340956 93.264710 -0.000000 -0.000004 0.000003 46.084868 -4.662419 0.415407 -0.000006 0.000014 3.004930 -5.000157 8.000000 -0.000032 -4.416177 182.093799 -0.263416 -179.999991 0.000005 -1.045000 168.337348 -1.672768 -0.708245 -0.000007 0.000003 0.170539 69.417951 6.853978 2.200201 25.456967 -7.355613 -0.000001 -2.204532 180.511641 2.975326 -0.000005 -0.000005 -0.920844 -5.492667 4.061608 0.319717 -0.000000 -0.000004 -0.061541 69.368398 -6.823502 -2.299507 25.456959 7.355614 -0.000002 
56.454105 -6.485838 93.702995 -1.262254 0.216582 4.159712 -2.681932 -0.028850 -0.204045 -1.361100 -0.046689 -0.408984 0.283955 -0.051465 -0.408424 24.177893 9.414400 -4.608072 -2.632331 -13.668704 -3.018574 -14.197686 -6.645917 -14.233243 -153.249050 -171.003512 -69.212144 -0.000004 0.000022 0.000001 53.845772 -1.371826 2.231019 0.000006 -0.000009 -3.003120 -5.000221 -7.999620 0.000063 -19.879177 20.670236 23.894524 -145.226050 187.155134 93.384115 -0.000002 -0.000006 0.000001 45.732355 -4.692142 0.438921 -0.000005 0.000012 3.004910 -5.000152 7.999999 -0.000032 -4.422847 182.080822 -0.272509 -179.999991 0.000005 -1.045000 168.355161 -1.672875 -0.707726 -0.000006 0.000003 0.170362 69.418272 6.854027 2.200089 25.456972 -7.355613 -0.000000 -2.222529 180.499647 2.968480 -0.000005 -0.000004 -0.920853 -5.503942 4.062388 0.320467 -0.000000 -0.000004 -0.061487 69.367756 -6.823471 -2.299542 25.456962 7.355615 -0.000002 
56.450504 -6.486865 93.708794 -1.250599 0.227967 4.134707 -2.680459 -0.026513 -0.205741 -1.358160 -0.042150 -0.412299 0.286895 -0.047008 -0.411789 24.038526 9.336790 -4.580890 -2.570408 -13.589719 -3.006907 -14.221356 -6.764280 -14.283324 -153.231879 -170.923640 -69.393253 0.000000 0.000021 0.000002 53.386388 -1.188476 2.084234 0.000003 -0.000008 -3.003121 -5.000219 -7.999620 0.000063 -19.877481 20.641192 23.892191 -145.190506 186.964202 93.507947 -0.000001 -0.000006 0.000001 45.375607 -4.720920 0.461465 -0.000006 0.000013 3.004890 -5.000153 8.000000 -0.000032 -4.429894 182.068842 -0.281395 -179.999991 0.000005 -1.045001 168.373165 -1.672983 -0.706188 -0.000006 0.000002 0.170193 69.418409 6.854104 2.199895 25.456971 -7.355613 -0.000001 -2.241842 180.487640 2.961461 -0.000004 -0.000004 -0.920864 -5.516259 4.063309 0.321297 -0.000001 -0.000004 -0.061434 69.367019 -6.823470 -2.299585 25.456960 7.355616 -0.000001 
56.445206 -6.488725 93.709694 -1.238591 0.239431 4.109846 -2.678819 -0.023939 -0.207544 -1.354870 -0.037158 -0.415816 0.290177 -0.042090 -0.415363 23.894148 9.252782 -4.552689 -2.504734 -13.505358 -2.994819 -14.246810 -6.889128 -14.337059 -153.214612 -170.849710 -69.577238 -0.000004 0.000021 0.000003 52.922092 -1.001657 1.937479 0.000003 -0.000008 -3.003121 -5.000225 -7.999621 0.000063 -19.876713 20.607072 23.891431 -145.153609 186.768777 93.635787 -0.000002 -0.000008 0.000000 45.013549 -4.748905 0.483173 -0.000005 0.000013 3.004860 -5.000154 8.000002 -0.000033 -4.437276 182.056835 -0.290039 -179.999991 0.000005 -1.045000 168.391170 -1.674068 -0.704866 -0.000007 0.000003 0.170029 69.418416 6.854139 2.199802 25.456971 -7.355615 0.000000 -2.262169 180.474635 2.954321 -0.000005 -0.000005 -0.920876 -5.529440 4.064354 0.322193 -0.000001 -0.000004 -0.061381 69.366261 -6.823434 -2.299626 25.456959 7.355615 -0.000000 
56.441902 -6.490523 93.709694 -1.226361 0.250947 4.084982 -2.677060 -0.021214 -0.209429 -1.351350 -0.031886 -0.419494 0.293703 -0.036885 -0.419102 23.746363 9.164569 -4.523873 -2.436338 -13.417502 -2.982393 -14.273505 -7.018637 -14.393237 -153.196444 -170.780274 -69.764222 -0.000004 0.000022 0.000001 52.452083 -0.811700 1.790926 0.000004 -0.000008 -3.003119 -5.000224 -7.999620 0.000064 -19.876597 20.569724 23.891443 -145.116098 186.569581 93.767173 0.000000 -0.000006 0.000000 44.645385 -4.776221 0.504191 -0.000005 0.000012 3.004841 -5.000154 7.999997 -0.000032 -4.444909 182.045852 -0.298563 -179.999991 0.000005 -1.045001 168.409283 -1.674177 -0.703340 -0.000007 0.000003 0.169871 69.418327 6.854169 2.199712 25.456969 -7.355614 -0.000000 -2.283226 180.461657 2.947054 -0.000005 -0.000004 -0.920888 -5.543303 4.065513 0.323143 -0.000000 -0.000004 -0.061327 69.365414 -6.823429 -2.299577 25.456962 7.355615 -0.000001 
56.447605 -6.448118 93.706001 -1.214040 0.262482 4.059993 -2.675229 -0.018426 -0.211376 -1.347670 -0.026506 -0.423291 0.297376 -0.031566 -0.422960 23.597166 9.074266 -4.494853 -2.366261 -13.327829 -2.969682 -14.301083 -7.151012 -14.451075 -153.176882 -170.714281 -69.954606 -0.000000 0.000020 0.000002 51.975175 -0.618950 1.644752 -0.000001 -0.000007 -3.003120 -5.000220 -7.999619 0.000064 -19.876518 20.531028 23.891828 -145.078204 186.367258 93.901878 0.000001 -0.000006 0.000002 44.270011 -4.803039 0.524667 -0.000008 0.000014 3.004820 -5.000154 8.000001 -0.000031 -4.452721 182.033871 -0.306851 -179.999991 0.000005 -1.044003 168.427288 -1.675262 -0.702017 -0.000007 0.000002 0.169720 69.418129 6.854231 2.199536 25.456969 -7.355614 -0.000000 -2.304741 180.448653 2.939674 -0.000004 -0.000004 -0.920899 -5.557668 4.066788 0.324134 -0.000000 -0.000004 -0.061274 69.364471 -6.823416 -2.299532 25.456962 7.355615 -0.000001 
